<?xml version="1.0" encoding="utf-8"?>
<!-- Generator: Adobe Illustrator 25.4.1, SVG Export Plug-In . SVG Version: 6.00 Build 0)  -->
<svg version="1.1" id="Capa_1" xmlns="http://www.w3.org/2000/svg" xmlns:xlink="http://www.w3.org/1999/xlink" x="0px" y="0px"
	 viewBox="0 0 80 80" style="enable-background:new 0 0 80 80;" xml:space="preserve">
<style type="text/css">
	.st0{fill:#FFFFFF;}
</style>
<path class="st0" d="M40.7,7c-5.8-0.1-11.8,1.3-17.2,4.4C7.7,20.5,2.3,40.7,11.4,56.5c9.1,15.8,29.3,21.2,45.1,12.1
	s21.2-29.3,12.1-45.1C62.6,13.1,51.8,7.3,40.7,7z M40.7,9c10.5,0.2,20.6,5.8,26.2,15.5c8.6,14.8,3.5,33.8-11.3,42.3
	c-14.8,8.6-33.8,3.5-42.3-11.3S9.7,21.7,24.5,13.2C29.6,10.2,35.2,8.9,40.7,9z M40,12c-0.6,0-1,0.4-1,1s0.4,1,1,1s1-0.4,1-1
	S40.6,12,40,12z M45.3,12.5c-0.5,0-0.9,0.3-1,0.8c-0.1,0.5,0.2,1.1,0.8,1.2c0.5,0.1,1.1-0.2,1.2-0.8c0.1-0.5-0.2-1.1-0.8-1.2
	C45.4,12.5,45.4,12.5,45.3,12.5z M34.7,12.5c-0.1,0-0.1,0-0.2,0c-0.5,0.1-0.9,0.6-0.8,1.2c0.1,0.3,0.2,0.5,0.4,0.6
	c0.2,0.1,0.5,0.2,0.8,0.1c0.5-0.1,0.9-0.6,0.8-1.2C35.6,12.9,35.2,12.5,34.7,12.5z M29.7,14.1c-0.1,0-0.3,0-0.4,0.1
	c-0.5,0.2-0.8,0.8-0.5,1.3c0.2,0.5,0.8,0.8,1.3,0.5c0.5-0.2,0.8-0.8,0.5-1.3C30.4,14.3,30.1,14.1,29.7,14.1z M50.4,14.1
	c-0.4,0-0.8,0.2-0.9,0.6c-0.2,0.5,0,1.1,0.5,1.3c0.5,0.2,1.1,0,1.3-0.5c0.2-0.5,0-1.1-0.5-1.3C50.6,14.1,50.5,14.1,50.4,14.1z
	 M25,16.5c-0.2,0-0.4,0.1-0.6,0.2c-0.5,0.3-0.6,0.9-0.3,1.4c0.3,0.5,0.9,0.6,1.4,0.3c0.5-0.3,0.6-0.9,0.3-1.4
	C25.6,16.7,25.3,16.6,25,16.5z M55,16.5c-0.3,0-0.7,0.2-0.8,0.4c-0.3,0.5-0.2,1.1,0.3,1.4c0.5,0.3,1.1,0.2,1.4-0.3
	c0.1-0.2,0.2-0.5,0.2-0.8c-0.1-0.3-0.2-0.5-0.4-0.6C55.4,16.6,55.2,16.6,55,16.5z M20.9,19.9c-0.3,0-0.5,0.1-0.7,0.3
	c-0.4,0.4-0.4,1,0,1.4c0.4,0.4,1,0.4,1.4,0c0.4-0.4,0.4-1,0-1.4C21.4,20,21.2,19.9,20.9,19.9z M59.1,19.9c-0.3,0-0.5,0.1-0.7,0.3
	c-0.4,0.4-0.4,1,0,1.4c0.4,0.4,1,0.4,1.4,0c0.4-0.4,0.4-1,0-1.4C59.6,20,59.4,19.9,59.1,19.9z M62.5,24c-0.2,0-0.4,0.1-0.6,0.2
	c-0.5,0.3-0.6,0.9-0.3,1.4c0.3,0.5,0.9,0.6,1.4,0.3c0.5-0.3,0.6-0.9,0.3-1.4C63.1,24.2,62.8,24,62.5,24z M17.6,24
	c-0.3,0-0.7,0.2-0.8,0.4c-0.3,0.5-0.2,1.1,0.3,1.4c0.5,0.3,1.1,0.2,1.4-0.3c0.3-0.5,0.2-1.1-0.3-1.4C17.9,24.1,17.8,24,17.6,24z
	 M18.6,26.9l10.8,18.8c0,0,0,0,0,0l0.2,0.3v0c2.1,3.6,6,6,10.4,6c1.5,0,2.9-0.3,4.3-0.8l-4.9,13.8l11-19.1l0,0c1-1.8,1.6-3.8,1.6-6
	c0-3.7-1.7-7.1-4.4-9.3L62,28H40c-6,0-10.9,4.4-11.8,10.1L18.6,26.9z M65,28.7c-0.1,0-0.3,0-0.4,0.1C64.1,29,63.8,29.5,64,30
	c0.2,0.5,0.8,0.8,1.3,0.5s0.8-0.8,0.5-1.3C65.7,28.9,65.4,28.7,65,28.7z M15.1,28.7c-0.4,0-0.8,0.2-0.9,0.6c-0.2,0.5,0,1.1,0.5,1.3
	c0.5,0.2,1.1,0,1.3-0.5s0-1.1-0.5-1.3C15.3,28.7,15.2,28.7,15.1,28.7z M40,30c5.5,0,10,4.5,10,10s-4.5,10-10,10s-10-4.5-10-10
	S34.5,30,40,30z M66.5,33.7c-0.1,0-0.1,0-0.2,0c-0.5,0.1-0.9,0.6-0.8,1.2c0.1,0.5,0.6,0.9,1.2,0.8c0.5-0.1,0.9-0.6,0.8-1.2
	C67.4,34.1,67,33.7,66.5,33.7z M13.5,33.7c-0.5,0-0.9,0.3-1,0.8c-0.1,0.3,0,0.5,0.1,0.8c0.1,0.2,0.4,0.4,0.6,0.4
	c0.3,0.1,0.5,0,0.8-0.1c0.2-0.1,0.4-0.4,0.4-0.6c0.1-0.5-0.2-1.1-0.8-1.2C13.7,33.7,13.6,33.7,13.5,33.7z M13,39c-0.6,0-1,0.4-1,1
	s0.4,1,1,1s1-0.4,1-1S13.6,39,13,39z M67,39c-0.6,0-1,0.4-1,1s0.4,1,1,1s1-0.4,1-1S67.6,39,67,39z M13.5,44.3c-0.1,0-0.1,0-0.2,0
	c-0.5,0.1-0.9,0.6-0.8,1.2c0.1,0.5,0.6,0.9,1.2,0.8c0.5-0.1,0.9-0.6,0.8-1.2C14.4,44.6,14,44.3,13.5,44.3z M66.5,44.3
	c-0.5,0-0.9,0.3-1,0.8c-0.1,0.5,0.2,1.1,0.8,1.2c0.5,0.1,1.1-0.2,1.2-0.8c0.1-0.5-0.2-1.1-0.8-1.2C66.6,44.3,66.6,44.3,66.5,44.3z
	 M65,49.3c-0.4,0-0.8,0.2-0.9,0.6c-0.2,0.5,0,1.1,0.5,1.3s1.1,0,1.3-0.5c0.2-0.5,0-1.1-0.5-1.3C65.2,49.4,65.1,49.3,65,49.3z
	 M15.1,49.3c-0.1,0-0.3,0-0.4,0.1c-0.2,0.1-0.4,0.3-0.5,0.5c-0.1,0.2-0.1,0.5,0,0.8c0.2,0.5,0.8,0.8,1.3,0.5
	c0.2-0.1,0.4-0.3,0.5-0.5s0.1-0.5,0-0.8C15.8,49.6,15.5,49.3,15.1,49.3z M62.5,54c-0.3,0-0.7,0.2-0.8,0.4c-0.3,0.5-0.2,1.1,0.3,1.4
	c0.2,0.1,0.5,0.2,0.8,0.1c0.3-0.1,0.5-0.2,0.6-0.4c0.3-0.5,0.2-1.1-0.3-1.4C62.8,54.1,62.7,54,62.5,54z M17.6,54
	c-0.2,0-0.4,0.1-0.6,0.2c-0.5,0.3-0.6,0.9-0.3,1.4c0.3,0.5,0.9,0.6,1.4,0.3c0.5-0.3,0.6-0.9,0.3-1.4C18.2,54.2,17.9,54,17.6,54z
	 M20.9,58.1c-0.3,0-0.5,0.1-0.7,0.3c-0.4,0.4-0.4,1,0,1.4c0.4,0.4,1,0.4,1.4,0c0.4-0.4,0.4-1,0-1.4C21.4,58.2,21.2,58.1,20.9,58.1z
	 M59.1,58.1c-0.3,0-0.5,0.1-0.7,0.3c-0.4,0.4-0.4,1,0,1.4c0.4,0.4,1,0.4,1.4,0c0.4-0.4,0.4-1,0-1.4C59.6,58.2,59.4,58.1,59.1,58.1z
	 M25,61.4c-0.3,0-0.7,0.2-0.8,0.4c-0.3,0.5-0.2,1.1,0.3,1.4c0.5,0.3,1.1,0.2,1.4-0.3c0.3-0.5,0.2-1.1-0.3-1.4
	C25.4,61.5,25.2,61.4,25,61.4z M55,61.4c-0.2,0-0.4,0.1-0.6,0.2c-0.2,0.1-0.4,0.4-0.4,0.6c-0.1,0.3,0,0.5,0.2,0.8
	c0.3,0.5,0.9,0.6,1.4,0.3c0.5-0.3,0.6-0.9,0.3-1.4C55.7,61.6,55.3,61.4,55,61.4z M29.7,63.9c-0.4,0-0.8,0.2-0.9,0.6
	c-0.2,0.5,0,1.1,0.5,1.3c0.5,0.2,1.1,0,1.3-0.5c0.2-0.5,0-1.1-0.5-1.3C29.9,64,29.8,63.9,29.7,63.9z M50.3,63.9
	c-0.1,0-0.3,0-0.4,0.1c-0.2,0.1-0.4,0.3-0.5,0.5c-0.1,0.2-0.1,0.5,0,0.8c0.2,0.5,0.8,0.8,1.3,0.5c0.2-0.1,0.4-0.3,0.5-0.5
	c0.1-0.2,0.1-0.5,0-0.8C51.1,64.2,50.7,63.9,50.3,63.9z M34.8,65.5c-0.5,0-0.9,0.3-1,0.8c-0.1,0.5,0.2,1.1,0.8,1.2s1.1-0.2,1.2-0.8
	s-0.2-1.1-0.8-1.2C34.9,65.5,34.8,65.5,34.8,65.5z M45.3,65.5c-0.1,0-0.1,0-0.2,0c-0.5,0.1-0.9,0.6-0.8,1.2c0.1,0.3,0.2,0.5,0.4,0.6
	c0.2,0.1,0.5,0.2,0.8,0.2c0.3-0.1,0.5-0.2,0.6-0.4c0.1-0.2,0.2-0.5,0.1-0.8C46.2,65.8,45.7,65.5,45.3,65.5z M40,66c-0.6,0-1,0.4-1,1
	s0.4,1,1,1s1-0.4,1-1S40.6,66,40,66z"/>
</svg>
